Motion_pl10
version=1
nRows=10
nColumns=43
inDegrees=yes
endheader
time	pelvis_tilt	pelvis_list	pelvis_rotation	pelvis_tx	pelvis_ty	pelvis_tz	hip_flexion_r	hip_adduction_r	hip_rotation_r	knee_angle_r	ankle_angle_r	subtalar_angle_r	mtp_angle_r	hip_flexion_l	hip_adduction_l	hip_rotation_l	knee_angle_l	ankle_angle_l	subtalar_angle_l	mtp_angle_l	lumbar_extension	lumbar_bending	lumbar_rotation	neck_flexion	neck_lateral_bending	neck_rotation	arm_flex_r	arm_add_r	arm_rot_r	elbow_flex_r	pro_sup_r	wrist_flex_r	wrist_dev_r	hand_finger_flex_r	arm_flex_l	arm_add_l	arm_rot_l	elbow_flex_l	pro_sup_l	wrist_flex_l	wrist_dev_l	hand_finger_flex_l
      0.00250000	      0.68236985	     -4.77970212	     86.48023459	      0.07107238	      1.74814757	      1.82053404	     76.65039283	     -2.17554180	      3.76281633	   -152.50862330	     23.06437412	     11.65126708	     19.09485591	     73.81289686	     -7.41099252	     12.42001179	   -151.97391207	     20.42245355	     21.62713456	     28.39365994	    -52.53303367	     -3.53274561	      2.33940065	     33.05865064	      1.86440469	     -3.77286057	     42.64906453	    -23.19352109	     -6.78159037	     78.90734142	     92.03460388	      2.01208647	     -1.52442879	    -10.33374764	     58.83906341	    -22.65134284	      9.87534328	     50.08934898	    112.26370271	    -16.09843717	     -5.42914649	     18.40379289
      0.00500000	      0.73592706	     -5.13806490	     86.49080766	      0.07083891	      1.74770639	      1.81870666	     76.77959869	     -2.19961478	      3.68357297	   -152.48556214	     22.89866486	     11.51174265	     19.09704101	     73.90028419	     -7.36524476	     12.35123261	   -151.97507068	     20.45669104	     21.27297737	     28.51817382	    -52.09639200	     -3.44024018	      2.38653950	     32.91396326	      2.02612758	     -3.40625720	     43.70407275	    -23.45948597	     -6.39278846	     78.97107747	     92.53769581	      2.30514968	     -1.58689728	    -10.36232706	     59.85122427	    -22.74017843	     10.53885004	     49.91334150	    112.18426051	    -16.01592820	     -5.30440379	     18.49476632
      0.00750000	      0.75258685	     -5.49473400	     86.48859525	      0.07066850	      1.74746135	      1.81680563	     76.86041202	     -2.22689246	      3.64872734	   -152.44045279	     22.92176093	     11.46386342	     19.11439409	     73.94336527	     -7.35289494	     12.30089488	   -151.94556664	     20.47597924	     21.16944581	     28.57446728	    -51.73522779	     -3.37486289	      2.39779874	     33.20252105	      2.06693688	     -3.43286731	     44.80261372	    -23.60705180	     -6.09854663	     79.07507973	     92.72842989	      2.43126804	     -1.56314583	    -10.37982510	     60.74989882	    -22.76228340	     10.85780707	     49.92001226	    112.20961284	    -16.03001598	     -5.23342154	     18.48316040
      0.01000000	      0.81624115	     -5.85685822	     86.52079787	      0.07045093	      1.74711470	      1.81490556	     76.90909964	     -2.24675720	      3.54389814	   -152.38940681	     22.95262629	     11.36819968	     19.15638173	     74.01324278	     -7.29513316	     12.26437323	   -151.91843070	     20.54001315	     20.89341704	     28.71178977	    -51.32964735	     -3.24338655	      2.42519149	     33.13608835	      2.05539589	     -3.37490453	     45.91614355	    -23.89422924	     -5.59766777	     79.20759020	     93.05546540	      2.57476682	     -1.47604398	    -10.48198143	     61.70558370	    -23.03450843	     11.77503288	     49.98195186	    112.27991437	    -16.14696284	     -5.05677110	     18.40947458
      0.01250000	      0.84148058	     -6.21737962	     86.51034811	      0.07029170	      1.74691766	      1.81291108	     76.95684360	     -2.25674342	      3.50972757	   -152.32266677	     22.96876874	     11.34501114	     19.17641257	     74.03058286	     -7.29499778	     12.22295739	   -151.87797955	     20.55881512	     20.82775084	     28.76413509	    -50.96277525	     -3.17641958	      2.45793239	     33.42732004	      2.11854667	     -3.38015146	     47.03721140	    -24.01877120	     -5.30133363	     79.30788833	     93.16426072	      2.63337280	     -1.43120844	    -10.52189917	     62.62258756	    -23.01589975	     12.07750483	     49.97496377	    112.30705787	    -16.20013122	     -4.93099880	     18.35380850
      0.01500000	      0.96960879	     -6.53122083	     86.55924274	      0.07018681	      1.74675781	      1.81091541	     76.88791043	     -2.23561132	      3.30658210	   -152.23686673	     22.99752509	     11.23028296	     19.30839757	     74.03508044	     -7.29047994	     12.26326877	   -151.84012081	     20.56325142	     20.50178360	     29.07750835	    -50.61148086	     -2.99987606	      2.49645083	     33.38954823	      2.13784610	     -3.26805989	     48.20736428	    -24.18036524	     -4.76016276	     79.40857147	     93.28786560	      2.47537477	     -1.32192067	    -10.94723772	     63.67788034	    -23.41927069	     13.49436821	     50.05954541	    111.98812162	    -16.90945580	     -4.34641159	     17.95048032
      0.01750000	      0.99182697	     -6.90250430	     86.52287573	      0.06994839	      1.74655598	      1.80881310	     76.91409811	     -2.23830918	      3.30947902	   -152.15767114	     23.05439601	     11.21779201	     19.33868448	     74.02241306	     -7.32058975	     12.19569975	   -151.79118128	     20.61369289	     20.50470395	     29.12826019	    -50.22284033	     -2.94120324	      2.57269129	     33.63084518	      2.19027700	     -3.29365129	     49.34369413	    -24.40288813	     -4.39942956	     79.52354890	     93.34428565	      2.59266744	     -1.26672209	    -10.95061243	     64.56597564	    -23.36911971	     13.76445178	     50.10100384	    112.00767879	    -16.85190834	     -4.25739150	     17.94611691
      0.02000000	      1.08575997	     -7.23905057	     86.50652289	      0.06986329	      1.74632764	      1.80670818	     76.84562636	     -2.15769636	      3.20849208	   -152.07233225	     23.17243096	     11.23686344	     19.41996187	     74.00467111	     -7.38834584	     12.19805903	   -151.75727715	     20.70737043	     20.40962285	     29.24177496	    -49.83174166	     -2.82373981	      2.66002110	     33.55542698	      2.17321734	     -3.24958459	     50.50988714	    -24.62957798	     -3.86817284	     79.63532296	     93.37423216	      2.61959269	     -1.13719493	    -11.06624357	     65.54124749	    -23.56320227	     14.55616994	     50.17087537	    112.08401685	    -16.84015514	     -3.94662906	     17.88386701
      0.02250000	      1.24467419	     -7.53145542	     86.51692506	      0.06973736	      1.74636871	      1.80451226	     76.68770354	     -2.10734332	      3.02649483	   -151.93734316	     23.22567800	     11.24012609	     19.63741833	     73.91459192	     -7.47688443	     12.29289011	   -151.69220400	     20.68612129	     20.30507105	     29.54005466	    -49.51576996	     -2.64296999	      2.75674276	     33.67148896	      2.20950101	     -3.14252257	     51.72203305	    -24.65297499	     -3.44883284	     79.66827888	     93.17016526	      2.38719560	     -0.99796994	    -11.49477961	     66.52812784	    -23.81735882	     15.62249083	     50.32370856	    111.63700075	    -17.41929803	     -3.22443871	     17.51863653
      0.02500000	      1.29209316	     -7.91192669	     86.47629892	      0.06953244	      1.74616551	      1.80228836	     76.66126356	     -2.06435925	      3.00054778	   -151.84012121	     23.32638250	     11.23619997	     19.71542390	     73.89773482	     -7.54132975	     12.22742944	   -151.63557330	     20.75642626	     20.28200862	     29.62917120	    -49.09133204	     -2.56496251	      2.84674584	     33.77262524	      2.24244994	     -3.14862655	     52.87250563	    -24.83210388	     -3.04748790	     79.75674782	     93.21757210	      2.52688988	     -0.90582013	    -11.52345402	     67.41954886	    -23.82712730	     16.02088025	     50.36112303	    111.62486730	    -17.35478792	     -3.09822389	     17.50351805
